<svg width="317" height="317" viewBox="0 0 317 317" fill="none" xmlns="http://www.w3.org/2000/svg">
<circle cx="158.102" cy="158.102" r="158.102" fill="white"/>
<g filter="url(#filter0_f_63_9)">
<path fill-rule="evenodd" clip-rule="evenodd" d="M96.7734 163.58C88.8749 173.715 68.1647 222.643 112.462 251.252C124.268 258.877 148.454 268.787 177.063 251.252C193.652 241.085 216.746 194.957 190.906 163.58C184.902 157.243 179.14 151.75 173.531 146.403C164.376 137.675 155.63 129.338 146.916 118.36C146.012 117.221 144.762 117.437 144.762 117.437C144.762 117.437 143.238 117.541 142.58 118.36C134.752 128.1 125.93 135.795 117.596 143.066C109.835 149.835 102.496 156.237 96.7734 163.58ZM115.837 179.187C111.247 185.048 99.2094 213.347 124.956 229.893C131.818 234.303 145.875 240.034 162.503 229.893C172.146 224.012 185.568 197.334 170.549 179.187C167.06 175.521 163.711 172.344 160.451 169.252C155.129 164.204 150.046 159.382 144.981 153.033C144.456 152.374 143.73 152.499 143.73 152.499C143.73 152.499 142.844 152.559 142.461 153.033C137.911 158.666 132.784 163.117 127.94 167.322C123.429 171.237 119.163 174.94 115.837 179.187Z" fill="#144433"/>
</g>
<g filter="url(#filter1_f_63_9)">
<path d="M191.482 55.1283C160.639 57.3313 146.809 97.0479 143.749 116.631C151.827 90.1939 181.385 80.5248 195.154 78.9949C218.103 71.6514 200.662 53.2925 191.482 55.1283Z" fill="#BC192C"/>
</g>
<g filter="url(#filter2_f_63_9)">
<path d="M221.295 110.25C198.687 89.1551 160.177 106.058 143.749 117.147C168.614 105.069 195.817 120.14 206.311 129.186C227.311 140.999 228.889 115.725 221.295 110.25Z" fill="#BC192C"/>
</g>
<defs>
<filter id="filter0_f_63_9" x="84" y="116.421" width="119.497" height="145.608" filterUnits="userSpaceOnUse" color-interpolation-filters="sRGB">
<feFlood flood-opacity="0" result="BackgroundImageFix"/>
<feBlend mode="normal" in="SourceGraphic" in2="BackgroundImageFix" result="shape"/>
<feGaussianBlur stdDeviation="0.5" result="effect1_foregroundBlur_63_9"/>
</filter>
<filter id="filter1_f_63_9" x="142.749" y="54" width="64.757" height="63.6309" filterUnits="userSpaceOnUse" color-interpolation-filters="sRGB">
<feFlood flood-opacity="0" result="BackgroundImageFix"/>
<feBlend mode="normal" in="SourceGraphic" in2="BackgroundImageFix" result="shape"/>
<feGaussianBlur stdDeviation="0.5" result="effect1_foregroundBlur_63_9"/>
</filter>
<filter id="filter2_f_63_9" x="142.749" y="99.1855" width="83.7102" height="34.1088" filterUnits="userSpaceOnUse" color-interpolation-filters="sRGB">
<feFlood flood-opacity="0" result="BackgroundImageFix"/>
<feBlend mode="normal" in="SourceGraphic" in2="BackgroundImageFix" result="shape"/>
<feGaussianBlur stdDeviation="0.5" result="effect1_foregroundBlur_63_9"/>
</filter>
</defs>
</svg>
